<svg width="38" height="38" viewBox="0 0 38 38" fill="none" xmlns="http://www.w3.org/2000/svg">
<path fill-rule="evenodd" clip-rule="evenodd" d="M19 31.75C26.0416 31.75 31.75 26.0416 31.75 19C31.75 11.9584 26.0416 6.25 19 6.25C11.9584 6.25 6.25 11.9584 6.25 19C6.25 26.0416 11.9584 31.75 19 31.75ZM19 38C29.4934 38 38 29.4934 38 19C38 8.50659 29.4934 0 19 0C8.50659 0 0 8.50659 0 19C0 29.4934 8.50659 38 19 38ZM16.4999 13.875C16.4999 12.5633 17.5632 11.5 18.8749 11.5C20.1866 11.5 21.2499 12.5633 21.2499 13.875V17H24.6251C25.9368 17 27.0001 18.0633 27.0001 19.375C27.0001 20.6867 25.9368 21.75 24.6251 21.75H21.2499V25.125C21.2499 26.4367 20.1866 27.5 18.8749 27.5C17.5632 27.5 16.4999 26.4367 16.4999 25.125V21.75H13.3751C12.0634 21.75 11.0001 20.6867 11.0001 19.375C11.0001 18.0633 12.0634 17 13.3751 17H16.4999V13.875Z" fill="#595959"/>
</svg>
