<svg width="21" height="18" viewBox="0 0 21 18" fill="none" xmlns="http://www.w3.org/2000/svg">
<path d="M7.30134 4.04192C9.61358 5.01684 9.33737 6.12697 8.75471 7.03892L8.66203 7.1928L7.83103 8.03281L7.73029 8.16698C6.76576 8.78313 5.21595 8.99728 4.17035 8.21226C2.85422 7.22415 1.75719 2.74077 1.78914 2.69821C1.79374 2.69209 1.83402 2.71551 1.91071 2.76011C2.36702 3.02544 4.11241 4.04033 7.30134 4.04192Z" fill="#595959"/>
<path d="M8.73315 9.04793L16.2352 15.6379C16.9468 16.2631 18.0401 16.1501 18.6088 15.3925C19.1775 14.635 18.981 13.5537 18.1821 13.0447L9.76044 7.67963L8.73315 9.04793Z" fill="#595959"/>
</svg>
