<svg width="15" height="16" viewBox="0 0 15 16" fill="none" xmlns="http://www.w3.org/2000/svg">
<path d="M13.8286 12.6H1.20476C1.11568 12.6 1.06143 12.502 1.10872 12.4265L1.83547 11.2667C3.75705 7.96363 1.42493 1.26666 7.47849 1.26666C13.5321 1.26666 11.1556 8.01269 13.1979 11.2667L13.9246 12.4265C13.9719 12.502 13.9176 12.6 13.8286 12.6Z" stroke="#F6F6F6" stroke-width="1.13333"/>
<path d="M10.0666 13.7333C10.0666 14.031 10.0006 14.3258 9.87245 14.6008C9.7443 14.8758 9.55646 15.1256 9.31967 15.3361C9.08289 15.5466 8.80178 15.7136 8.4924 15.8275C8.18302 15.9414 7.85142 16 7.51655 16C7.18168 16 6.85009 15.9414 6.54071 15.8275C6.23133 15.7136 5.95022 15.5466 5.71343 15.3361C5.47664 15.1256 5.28881 14.8758 5.16066 14.6008C5.03251 14.3258 4.96655 14.031 4.96655 13.7333L7.51655 13.7333H10.0666Z" fill="#F6F6F6"/>
<circle r="2.83333" transform="matrix(-1 0 0 1 11.1999 2.96666)" fill="#F25767"/>
</svg>
