<svg width="19" height="18" viewBox="0 0 19 18" fill="none" xmlns="http://www.w3.org/2000/svg">
<path fill-rule="evenodd" clip-rule="evenodd" d="M7.65711 0.41464L6.97682 1.21294C6.85881 1.08799 6.62973 0.976923 6.4076 0.976923L0.479329 9.0502C0.597339 9.16126 0.708407 9.28622 0.826417 9.39728L1.73579 10.0706C2.42302 10.5427 3.4504 10.4177 3.90856 9.74437L8.24022 4.14931C8.80251 3.47596 8.57343 2.44164 7.89314 1.87935L8.24022 1.42814L10.059 2.91368L7.90008 8.93913C7.90008 9.15432 7.90008 9.39034 8.12916 9.50141L9.49668 10.6468L9.14959 11.098C8.92052 11.3132 9.03853 11.6603 9.14959 11.7714L16.6745 17.2345C16.7855 17.3595 16.9035 17.2345 17.0077 17.2345L18.7153 14.9646C18.7153 14.8535 18.7153 14.6175 18.6043 14.5134L11.0725 9.0502C10.9614 8.93913 10.6212 8.93913 10.5102 9.16126L10.1631 9.74437L9.13571 8.94607L11.1905 2.92062C11.3015 2.6846 11.1905 2.33751 11.0725 2.23338L8.45542 0.289688C8.33741 0.178619 8.10833 0.178619 8.0042 0.178619C7.88619 0.178619 7.77513 0.282746 7.65711 0.41464ZM5.71342 0.865855C5.38022 0.976923 5.03313 1.21294 4.80405 1.53921L0.479329 7.12733C0.146124 7.45359 0.146124 8.0367 0.25025 8.48791L5.71342 0.865855Z" fill="#595959"/>
</svg>
