<svg width="17" height="15" viewBox="0 0 17 15" fill="none" xmlns="http://www.w3.org/2000/svg">
<path fill-rule="evenodd" clip-rule="evenodd" d="M10.2142 5.38065C10.2142 6.70715 9.68138 7.90915 8.81761 8.78407L9.8452 9.64487L9.40637 10.2152L9.39158 10.2345L9.37384 10.2512L9.37177 10.2535L9.37118 10.256C9.37059 10.2599 9.3697 10.2674 9.37118 10.2789C9.37266 10.2932 9.37709 10.3081 9.38241 10.3206L14.937 14.3533L16.0696 12.8477C16.0687 12.8385 16.0678 12.8296 16.0664 12.8209L16.0652 12.814L10.4452 8.73755L10.0152 9.45979L8.97019 8.64783L9.3419 8.16962L9.8455 8.56094L9.92711 8.4237C10.03 8.22938 10.2205 8.15235 10.3668 8.13434C10.4443 8.12482 10.5239 8.12904 10.5984 8.14743C10.662 8.16311 10.7394 8.19362 10.8069 8.2519L16.4697 12.3594L16.4854 12.3706L16.499 12.3836C16.6173 12.4942 16.6513 12.6436 16.6643 12.7243C16.6696 12.7576 16.6729 12.7905 16.6749 12.8208C16.6785 12.8713 16.6785 12.9146 16.6785 12.9407V13.0458L16.6179 13.1266L15.2398 14.9582H15.118L15.1012 14.9644L15.0769 14.973L15.0459 14.9825C15.0018 14.9947 14.9273 15.0097 14.8397 14.9916C14.7605 14.9752 14.6937 14.9367 14.6398 14.886L8.98853 10.7831L8.96931 10.769L8.95245 10.7521C8.85398 10.6537 8.78715 10.4998 8.76941 10.3485C8.75137 10.1915 8.78212 9.99029 8.93914 9.82959L9.011 9.7361L8.36103 9.19186C7.53718 9.83936 6.49835 10.2256 5.36933 10.2256C2.69345 10.2256 0.524414 8.05642 0.524414 5.38065C0.524414 2.70488 2.69345 0.535736 5.36933 0.535736C8.04521 0.535736 10.2142 2.70488 10.2142 5.38065ZM5.36889 9.01435C7.37572 9.01435 9.00258 7.38749 9.00258 5.38066C9.00258 3.37383 7.37572 1.74698 5.36889 1.74698C3.36206 1.74698 1.7352 3.37383 1.7352 5.38066C1.7352 7.38749 3.36206 9.01435 5.36889 9.01435Z" fill="#595959"/>
</svg>
