<svg width="18" height="17" viewBox="0 0 18 17" fill="none" xmlns="http://www.w3.org/2000/svg">
<mask id="path-1-inside-1" fill="white">
<path fill-rule="evenodd" clip-rule="evenodd" d="M10.1017 0.837826C9.93935 -0.279275 8.32726 -0.279275 8.16495 0.837826C8.03868 1.70686 6.9202 1.98254 6.40454 1.27173C5.74168 0.358012 4.31424 1.10719 4.68966 2.17176C4.98172 2.99993 4.11947 3.76382 3.33255 3.37406C2.32099 2.87306 1.40521 4.19978 2.23237 4.96795C2.87584 5.56553 2.46735 6.64262 1.58944 6.66322C0.460916 6.68969 0.266599 8.29003 1.35599 8.58581C2.20347 8.81591 2.34232 9.95946 1.57454 10.3857C0.587584 10.9336 1.15924 12.4409 2.2613 12.1965C3.11864 12.0064 3.77302 12.9545 3.29126 13.6887C2.67197 14.6325 3.87864 15.7015 4.74091 14.973C5.4117 14.4062 6.4317 14.9416 6.34632 15.8156C6.23658 16.939 7.80182 17.3248 8.22676 16.279C8.55733 15.4655 9.70928 15.4655 10.0398 16.279C10.4648 17.3248 12.03 16.939 11.9203 15.8156C11.8349 14.9416 12.8549 14.4062 13.5257 14.973C14.388 15.7015 15.5946 14.6325 14.9753 13.6887C14.4936 12.9545 15.148 12.0064 16.0053 12.1965C17.1074 12.4409 17.679 10.9336 16.6921 10.3857C15.9243 9.95946 16.0631 8.81591 16.9106 8.58581C18 8.29003 17.8057 6.68969 16.6772 6.66322C15.7993 6.64262 15.3908 5.56553 16.0342 4.96795C16.8614 4.19978 15.9456 2.87306 14.9341 3.37406C14.1471 3.76382 13.2849 2.99993 13.5769 2.17176C13.9524 1.10719 12.5249 0.358012 11.8621 1.27173C11.3464 1.98254 10.2279 1.70686 10.1017 0.837826ZM9.13319 13.8531C12.0595 13.8531 14.4317 11.4809 14.4317 8.55463C14.4317 5.62836 12.0595 3.25615 9.13319 3.25615C6.20693 3.25615 3.83472 5.62836 3.83472 8.55463C3.83472 11.4809 6.20693 13.8531 9.13319 13.8531Z"/>
</mask>
<path d="M8.16495 0.837826L6.57802 0.607252V0.607253L8.16495 0.837826ZM10.1017 0.837826L11.6886 0.607253L11.6886 0.607252L10.1017 0.837826ZM6.40454 1.27173L5.10654 2.21337V2.21337L6.40454 1.27173ZM4.68966 2.17176L3.17736 2.70508L3.17736 2.70508L4.68966 2.17176ZM3.33255 3.37406L2.62083 4.81106H2.62083L3.33255 3.37406ZM2.23237 4.96795L1.14113 6.14298L1.14113 6.14298L2.23237 4.96795ZM1.58944 6.66322L1.62705 8.26637H1.62705L1.58944 6.66322ZM1.35599 8.58581L0.935816 10.1334H0.935817L1.35599 8.58581ZM1.57454 10.3857L0.796213 8.98364H0.796213L1.57454 10.3857ZM2.2613 12.1965L2.60844 13.7621H2.60844L2.2613 12.1965ZM3.29126 13.6887L4.63199 14.5684L4.63199 14.5684L3.29126 13.6887ZM4.74091 14.973L5.77584 16.1979V16.1979L4.74091 14.973ZM6.34632 15.8156L7.94232 15.9715L6.34632 15.8156ZM8.22676 16.279L9.71239 16.8827L9.71239 16.8827L8.22676 16.279ZM10.0398 16.279L11.5255 15.6754L10.0398 16.279ZM11.9203 15.8156L10.3243 15.9715V15.9715L11.9203 15.8156ZM13.5257 14.973L14.5606 13.7481H14.5606L13.5257 14.973ZM14.9753 13.6887L13.6346 14.5684V14.5684L14.9753 13.6887ZM16.0053 12.1965L15.6582 13.7621L16.0053 12.1965ZM16.6921 10.3857L17.4704 8.98364H17.4704L16.6921 10.3857ZM16.9106 8.58581L17.3308 10.1334H17.3308L16.9106 8.58581ZM16.6772 6.66322L16.6396 8.26637L16.6772 6.66322ZM16.0342 4.96795L14.943 3.79291H14.943L16.0342 4.96795ZM14.9341 3.37406L14.2223 1.93707V1.93707L14.9341 3.37406ZM13.5769 2.17176L15.0892 2.70508V2.70508L13.5769 2.17176ZM11.8621 1.27173L10.5641 0.330082L10.5641 0.330082L11.8621 1.27173ZM9.75187 1.0684C9.73458 1.18741 9.65852 1.3481 9.50818 1.46705C9.37646 1.57126 9.23946 1.60359 9.1333 1.60359C9.02714 1.60359 8.89014 1.57126 8.75843 1.46705C8.60809 1.3481 8.53202 1.18741 8.51473 1.0684L11.6886 0.607252C11.2603 -2.34053 7.00632 -2.34054 6.57802 0.607252L9.75187 1.0684ZM5.10654 2.21337C6.46726 4.08905 9.41868 3.36159 9.75187 1.0684L6.57802 0.607253C6.65868 0.0521247 7.37314 -0.12397 7.70254 0.330082L5.10654 2.21337ZM6.20197 1.63844C6.24197 1.75185 6.24929 1.92949 6.17145 2.10468C6.10325 2.25816 5.99697 2.35046 5.90297 2.3998C5.80897 2.44913 5.67264 2.48417 5.50758 2.45311C5.31919 2.41765 5.17715 2.31071 5.10654 2.21337L7.70254 0.330082C5.95339 -2.08101 2.18669 -0.104102 3.17736 2.70508L6.20197 1.63844ZM2.62083 4.81106C4.69736 5.83953 6.97265 3.8238 6.20197 1.63844L3.17736 2.70508C2.9908 2.17606 3.54159 1.6881 4.04426 1.93707L2.62083 4.81106ZM3.3236 3.79291C3.41172 3.87475 3.50076 4.02863 3.51325 4.21993C3.52419 4.38753 3.47298 4.51864 3.41267 4.60601C3.35236 4.69338 3.24793 4.78776 3.08734 4.83696C2.90405 4.89312 2.72859 4.86443 2.62083 4.81106L4.04426 1.93707C1.37498 0.615017 -1.04155 4.11596 1.14113 6.14298L3.3236 3.79291ZM1.62705 8.26637C3.94368 8.21202 5.02159 5.3698 3.3236 3.79291L1.14113 6.14298C0.730092 5.76126 0.991028 5.07323 1.55183 5.06007L1.62705 8.26637ZM1.77617 7.03825C1.89222 7.06976 2.04258 7.16464 2.14253 7.32822C2.23011 7.47153 2.24569 7.61143 2.23289 7.71682C2.2201 7.8222 2.17149 7.95431 2.05216 8.0725C1.91596 8.20741 1.74727 8.26355 1.62705 8.26637L1.55183 5.06007C-1.42609 5.12993 -1.93886 9.35288 0.935816 10.1334L1.77617 7.03825ZM2.35286 11.7877C4.37888 10.663 4.01248 7.64542 1.77617 7.03825L0.935817 10.1334C0.394461 9.98639 0.305765 9.25591 0.796213 8.98364L2.35286 11.7877ZM1.91416 10.631C2.03157 10.6049 2.20879 10.6191 2.37332 10.7175C2.51746 10.8037 2.59628 10.9203 2.63392 11.0196C2.67157 11.1188 2.68992 11.2584 2.63918 11.4185C2.58128 11.6012 2.458 11.7294 2.35286 11.7877L0.796213 8.98364C-1.80814 10.4294 -0.299667 14.4069 2.60844 13.7621L1.91416 10.631ZM4.63199 14.5684C5.90326 12.631 4.17648 10.1293 1.91416 10.631L2.60844 13.7621C2.06079 13.8835 1.64278 13.2779 1.95053 12.8089L4.63199 14.5684ZM3.70598 13.748C3.79783 13.6704 3.96133 13.6006 4.15273 13.6113C4.32043 13.6206 4.44441 13.6872 4.52388 13.7576C4.60334 13.828 4.68444 13.9431 4.71393 14.1084C4.74759 14.2972 4.69796 14.4679 4.63199 14.5684L1.95053 12.8089C0.316367 15.2994 3.50051 18.1203 5.77584 16.1979L3.70598 13.748ZM7.94232 15.9715C8.1676 13.6652 5.47604 12.2525 3.70598 13.7481L5.77584 16.1979C5.34735 16.5599 4.69579 16.2179 4.75033 15.6596L7.94232 15.9715ZM6.74112 15.6754C6.78639 15.564 6.89871 15.4262 7.07314 15.3466C7.22597 15.277 7.36672 15.2784 7.4698 15.3038C7.57288 15.3292 7.69815 15.3934 7.8011 15.5261C7.91861 15.6775 7.95401 15.8518 7.94232 15.9715L4.75033 15.6596C4.46073 18.6243 8.59108 19.6423 9.71239 16.8827L6.74112 15.6754ZM11.5255 15.6754C10.6532 13.5286 7.61343 13.5286 6.74112 15.6754L9.71239 16.8827C9.50123 17.4024 8.76538 17.4024 8.55422 16.8827L11.5255 15.6754ZM10.3243 15.9715C10.3126 15.8518 10.348 15.6775 10.4655 15.5261C10.5685 15.3934 10.6937 15.3292 10.7968 15.3038C10.8999 15.2784 11.0406 15.277 11.1935 15.3466C11.3679 15.4262 11.4802 15.564 11.5255 15.6754L8.55422 16.8827C9.67552 19.6423 13.8059 18.6243 13.5163 15.6596L10.3243 15.9715ZM14.5606 13.7481C12.7906 12.2525 10.099 13.6652 10.3243 15.9715L13.5163 15.6597C13.5708 16.2179 12.9193 16.5599 12.4908 16.1979L14.5606 13.7481ZM13.6346 14.5684C13.5686 14.4679 13.519 14.2972 13.5527 14.1084C13.5822 13.9431 13.6633 13.828 13.7427 13.7576C13.8222 13.6872 13.9462 13.6206 14.1139 13.6113C14.3053 13.6006 14.4688 13.6704 14.5606 13.7481L12.4908 16.1979C14.7661 18.1203 17.9502 15.2994 16.3161 12.8089L13.6346 14.5684ZM16.3524 10.631C14.0901 10.1293 12.3633 12.631 13.6346 14.5684L16.3161 12.8089C16.6238 13.2779 16.2058 13.8835 15.6582 13.7621L16.3524 10.631ZM15.9137 11.7877C15.8086 11.7294 15.6853 11.6012 15.6274 11.4185C15.5767 11.2584 15.595 11.1188 15.6327 11.0196C15.6703 10.9203 15.7491 10.8037 15.8933 10.7175C16.0578 10.6191 16.235 10.6049 16.3524 10.631L15.6582 13.7621C18.5663 14.4069 20.0747 10.4294 17.4704 8.98364L15.9137 11.7877ZM16.4904 7.03825C14.2541 7.64542 13.8877 10.663 15.9137 11.7877L17.4704 8.98364C17.9608 9.25591 17.8721 9.98639 17.3308 10.1334L16.4904 7.03825ZM16.6396 8.26637C16.5193 8.26355 16.3506 8.20741 16.2144 8.0725C16.0951 7.95431 16.0465 7.82221 16.0337 7.71682C16.0209 7.61143 16.0365 7.47153 16.1241 7.32822C16.224 7.16464 16.3744 7.06976 16.4904 7.03825L17.3308 10.1334C20.2055 9.35288 19.6927 5.12993 16.7148 5.06007L16.6396 8.26637ZM14.943 3.79291C13.245 5.36981 14.3229 8.21202 16.6396 8.26637L16.7148 5.06007C17.2756 5.07323 17.5365 5.76126 17.1255 6.14298L14.943 3.79291ZM15.6458 4.81106C15.538 4.86443 15.3626 4.89312 15.1793 4.83696C15.0187 4.78776 14.9142 4.69338 14.8539 4.60601C14.7936 4.51864 14.7424 4.38753 14.7534 4.21993C14.7658 4.02863 14.8549 3.87475 14.943 3.79291L17.1255 6.14298C19.3081 4.11597 16.8916 0.615017 14.2223 1.93707L15.6458 4.81106ZM12.0646 1.63844C11.294 3.8238 13.5692 5.83953 15.6458 4.81106L14.2223 1.93707C14.725 1.6881 15.2758 2.17606 15.0892 2.70508L12.0646 1.63844ZM13.1601 2.21337C13.0895 2.31071 12.9474 2.41765 12.759 2.45311C12.594 2.48417 12.4576 2.44913 12.3636 2.3998C12.2696 2.35046 12.1634 2.25816 12.0952 2.10468C12.0173 1.92949 12.0246 1.75186 12.0646 1.63844L15.0892 2.70508C16.0799 -0.104104 12.3132 -2.08101 10.5641 0.330082L13.1601 2.21337ZM8.51473 1.0684C8.84792 3.36159 11.7993 4.08905 13.1601 2.21337L10.5641 0.330082C10.8935 -0.123971 11.6079 0.0521255 11.6886 0.607253L8.51473 1.0684ZM12.8281 8.55463C12.8281 10.5953 11.1738 12.2495 9.13319 12.2495V15.4567C12.9451 15.4567 16.0353 12.3665 16.0353 8.55463H12.8281ZM9.13319 4.85974C11.1738 4.85974 12.8281 6.514 12.8281 8.55463H16.0353C16.0353 4.74272 12.9451 1.65256 9.13319 1.65256V4.85974ZM5.43831 8.55463C5.43831 6.514 7.09257 4.85974 9.13319 4.85974V1.65256C5.32129 1.65256 2.23113 4.74272 2.23113 8.55463H5.43831ZM9.13319 12.2495C7.09257 12.2495 5.43831 10.5953 5.43831 8.55463H2.23113C2.23113 12.3665 5.32129 15.4567 9.13319 15.4567V12.2495Z" fill="#F6F6F6" mask="url(#path-1-inside-1)"/>
</svg>
