<svg width="17" height="22" viewBox="0 0 17 22" fill="none" xmlns="http://www.w3.org/2000/svg">
<path d="M13.9586 6.06897C15.6345 6.06897 16.9931 4.71038 16.9931 3.03448C16.9931 1.35858 15.6345 0 13.9586 0C12.2827 0 10.9241 1.35858 10.9241 3.03448C10.9241 3.30969 10.9608 3.57634 11.0294 3.82982L4.91864 9.00049C4.40106 8.58999 3.7464 8.34483 3.03448 8.34483C1.35858 8.34483 0 9.70341 0 11.3793C0 13.0552 1.35858 14.4138 3.03448 14.4138C3.77704 14.4138 4.4573 14.1471 4.98469 13.7042L10.9742 18.4139C10.9413 18.5928 10.9241 18.7771 10.9241 18.9655C10.9241 20.6414 12.2827 22 13.9586 22C15.6345 22 16.9931 20.6414 16.9931 18.9655C16.9931 17.2896 15.6345 15.931 13.9586 15.931C13.3059 15.931 12.7014 16.1371 12.2065 16.4877L6.05687 11.6521C6.06488 11.5623 6.06896 11.4713 6.06896 11.3793C6.06896 11.2597 6.06204 11.1417 6.04858 11.0257L12.4088 5.64391C12.8624 5.91389 13.3924 6.06897 13.9586 6.06897Z" fill="#595959"/>
</svg>
